<svg xmlns="http://www.w3.org/2000/svg" version="1.0" viewBox="0 0 516 504">
  <path d="M5.1 5.5 0 11.1V424l22.7-19.2c12.4-10.6 25.4-21.6 28.7-24.4 3.4-2.9 11.5-9.7 18-15.2l11.9-10.1 2.7 2.2c1.5 1.2 17.7 15.2 36 31.2 18.3 15.9 34.2 29.6 35.2 30.4 1.8 1.2 2.6.8 9.1-5.6 4-3.9 24.5-23.3 45.7-43.3 42.6-40.3 70.6-66.7 82.1-77.7 4.1-4 8-7.3 8.6-7.3.6 0 8.5 6.2 17.5 13.7 8.9 7.5 26 21.8 37.8 31.7 11.8 9.9 24.1 20.2 27.3 23l5.7 4.9 2.3-2c1.2-1.1 11-9.6 21.8-18.9 40-34.6 76.5-66.1 84.9-73.4 4.7-4.1 10.7-9.3 13.3-11.5l4.7-4V5l-2.2-2.5-2.2-2.5H10.3L5.1 5.5zM361 52.9c0 4.3-.5 7.2-1.2 7.8-1.1.8-16.4 5.3-18.2 5.3-.3 0-.6-3.5-.6-7.9v-7.9l4.3-1.1c2.3-.6 6.5-1.8 9.2-2.5 2.8-.7 5.3-1.2 5.8-.9.4.2.7 3.5.7 7.2zM45.5 92.5v41l-11.3.3-11.2.3.2-38.8.3-38.8 9-2.7c14.5-4.3 13-8.9 13 38.7zM323 64v8h14.2l-.7 3.2c-.4 1.8-1.3 4.9-1.9 6.8-1.1 3.3-1.3 3.5-6.3 3.8l-5.3.3v15.3c0 17.9.1 18.2 8.7 18 2.9-.1 5.3.1 5.3.3 0 1.9-3.4 13.1-4.3 14.2-1.5 1.8-18 1.1-22.1-1-4-1.9-6.7-5.8-7.7-11-.4-2.4-.8-17.1-.9-32.6V61.1l5.8-1.6c3.1-.9 6.8-2 8.2-2.5 1.4-.5 3.5-.9 4.8-.9 2.1-.1 2.2.2 2.2 7.9zM105.8 74.3c1.8 1.2 4.3 4 5.5 6.2 2.1 3.8 2.2 5.5 2.5 28.7l.3 24.8H94.2l-.4-19.9c-.3-18.3-.5-20.2-2.4-22.7-4-5.5-12.9-5-16.4.9-1.8 2.9-2 5.1-2 22.4V134H52l.2-29.3.3-29.2 8-2.2C72.1 70.2 72 70.2 72 75.7v4.7l2.8-2.5c4.8-4.4 6.2-5.2 11.4-6.4 6.5-1.4 15.1-.2 19.6 2.8zm108.7-2.8c5.6.9 13.1 5.2 16.5 9.5 3.1 4 7 14.3 7 18.8 0 3.3.5 3.1-27.7 10.8-15.7 4.2-17.3 5.6-11 9.4 6.8 4.2 20.1 2 27.9-4.5 1.6-1.4 3.3-2.5 3.7-2.5 1.1 0 5.4 12.8 4.6 13.9-1.2 2-9 5.9-15.1 7.6-9.1 2.5-22.2 1.8-29.4-1.6-10-4.7-16.1-13.5-17.5-25-2-16.4 8.5-32.4 23.5-35.8 8.5-2 8.7-2 17.5-.6zm69.9 1.5c6.5 2.3 14.2 10.8 11.9 13.1-.5.5-4.5 1.9-8.8 3.1-6.4 1.7-8 1.9-8.3.8-1.2-3.6-5.1-6-9.7-6-5.9 0-8.5 1.4-8.5 4.5 0 3.3 3.4 4.9 16 7.5 12.1 2.5 15 3.8 18.5 8.5 5.5 7.2 4.6 16.5-2.3 23.4-5.8 5.8-13 8.1-25 8.1-13.1 0-22.1-4-26.9-11.8-3.6-5.8-3.2-6.5 5.5-9 9.4-2.7 10.2-2.7 10.2-.5.1 2.2 2.8 5.7 5.7 7.2 4.8 2.4 14.2.4 15.7-3.4 1.8-4.7-1.5-6.8-15.7-10.1-14.1-3.3-19.1-6.3-21.4-12.9-4.3-12.1 4.6-22.5 20.8-24.3 6.7-.8 17.4.1 22.3 1.8zm75.8 29.9-.3 31.1H340V76.1l7.3-2.2c3.9-1.1 8.3-2.4 9.7-2.8 1.4-.5 2.7-.5 3 0 .3.4.4 14.7.2 31.8zm58.6-29.7c3 1.4 5 3.4 7 6.6l2.7 4.7.3 24.7.3 24.8h-19.9l-.4-20.3c-.3-22.4-.8-24-6.5-25.6-4.9-1.4-10 .4-12.3 4.2-1.8 2.9-2 5.1-2 22.4V134h-21l.2-29.3.3-29.2 8-2.2c11.4-3.1 11.5-3 11.5 1.7 0 2.2.3 4 .6 4s2.2-1.3 4.2-3c4.4-3.5 13.1-5.9 18.7-5.3 2.2.3 5.9 1.4 8.3 2.5zm50.4-1.2c.4 0 2.3 1.4 4.3 3.1 3.2 2.8 3.7 3 4.8 1.6 1.1-1.4 14.2-5.7 17.4-5.7 1 0 1.3 6.7 1.3 31.7 0 31.3-.1 31.9-2.4 36.8-2.8 6.1-6.5 9.9-13.1 13.3-4.6 2.5-6 2.7-17 2.7-11.1 0-12.4-.2-17.2-2.7-5.3-2.8-9.9-7.7-10.5-11.3-.3-1.7.9-2.3 8.1-4.4l8.4-2.4 2 2.7c4.3 5.9 12.4 7.4 17.6 3.1 2.2-1.9 3.3-4 4.1-8.1.7-3 .9-6.2.6-7.1-.6-1.4-1.1-1.2-3.4 1-11.8 11.3-33.7 4.3-38.6-12.4-2.3-7.6-2.1-19.6.4-26.3 4.4-11.6 16.5-18.6 28.5-16.4 2.2.4 4.3.7 4.7.8zm-333.8 5.2c.9 2.9 3.3 11.8 5.5 19.7 2.2 7.9 4.2 14.6 4.5 14.8.5.5 1.4-2.3 6.7-21.7 2.3-8.5 4.7-16.1 5.2-16.8.6-.8 4-1.2 10.3-1.2 8.3 0 9.4.2 9.4 1.7-.1 1-4.5 14.8-9.9 30.8l-9.8 29-11.9.3-11.9.3-10.2-30.3c-5.6-16.6-9.9-30.6-9.7-31 .3-.5 5-.8 10.4-.8h9.9l1.5 5.2zm254.4 96.2c3.8 2 6.1 4.7 6.8 8.4.6 2.8.4 3.2-1.4 3.2-1.2 0-2.8-1.3-4.1-3.5-4.9-8.4-16.6-6.6-20.7 3.2-.8 1.8-1.4 5.8-1.4 9 0 9.2 4.3 15.5 11.5 16.9 4 .7 9.4-2.9 11.8-7.9 1.5-3.3 2-3.6 3.7-2.7 1.9 1 1.9 1.3.5 4.8-5.5 13.5-23.5 13.4-30.3-.2-5.7-11.4-1.5-26.8 8.3-31.2 4-1.7 11.9-1.8 15.3 0zm40.1.7c13.6 7.6 13 31.8-.9 38.9-7.3 3.7-15.1 2.1-20.7-4.3-4.1-4.7-5.7-10.5-5-18.6.6-7.4 4-13.2 9.7-16.2 4.7-2.6 12.2-2.5 16.9.2zm42.7 1.3c3.1 3.1 3.5 3.3 4.7 1.7 3.6-5 11.8-6.7 17.7-3.6 5.4 2.8 6.1 5.7 5.8 23.7-.3 15.5-.4 16.3-2.3 16.3s-2-.8-2.5-16.6c-.4-11.9-.9-17.1-1.9-18.2-1.9-2.3-7.6-3.2-11.2-1.7-5.3 2.2-6.3 5.7-6.7 22.3-.4 14.5-.4 14.8-2.5 14.5-2.1-.3-2.2-.8-2.7-17.1-.5-16.2-.6-17-2.9-18.8-4.3-3.5-10.9-1.9-14.1 3.3-1.7 2.9-2 5.1-2 17.5 0 8.5-.4 14.4-1 14.8-.6.3-1.9.3-3 0-2-.6-2-1.4-1.8-20.3.3-19.6.3-19.7 2.6-20 1.8-.3 2.2.1 2.2 2.2 0 1.4.5 2.6 1 2.6.6 0 1-.4 1-.9 0-2.1 6.6-5.1 11.4-5.1 4.1 0 5.3.5 8.2 3.4zm-114.8 33.8c-.3 4-.5 4.3-3.3 4.3-2.6 0-3-.4-3.3-2.8-.5-4.3.4-5.7 3.8-5.7 3 0 3.1.1 2.8 4.2z"/>
  <path d="M201.3 85.6c-1.8.9-4.2 3.1-5.2 4.8-2.4 3.8-3.8 10.6-2.2 10.6.6 0 6.2-1.4 12.6-3.2 7.4-2 11.5-3.6 11.5-4.5 0-.7-1.5-2.9-3.2-4.8-4-4.3-8.8-5.3-13.5-2.9zm261.2 1.1c-7.2 1.9-10.6 12.9-6.9 22.3 1.8 4.5 5.5 7 10.4 7 9.4 0 14.6-10.8 10.6-21.9-2-5.6-8.4-8.9-14.1-7.4zM415.3 178c-10.2 6.2-9.5 25.8 1.1 31.3 12.6 6.6 23.9-13.3 15.4-27.1-3.7-6.1-10.6-7.8-16.5-4.2zm77.1 142.3c-12.8 11.1-28.9 25.1-36 31.2-7 6-16.9 14.6-21.9 19-5.1 4.4-15.2 13.2-22.5 19.5-7.3 6.3-14.5 12.5-15.9 13.8-1.4 1.3-3.6 3-4.9 3.9-2.7 1.9-1 3.1-23.9-16.2-9.8-8.3-28.7-24.2-42.1-35.4l-24.3-20.4-3.2 3c-3.1 2.9-106.1 100.3-129.6 122.5l-11.4 10.7-2.6-2.2c-1.5-1.2-9.6-8.3-18.1-15.7-41.4-36.2-53.9-47-54.4-47-.4 0-3.5 2.4-7 5.2-10 8.4-44.7 37.8-49.1 41.7-2.3 2-8.9 7.6-14.8 12.6l-10.7 9 .2 14 .3 14 257.8.3 257.7.2V402c0-56.1-.1-102-.2-101.9-.2 0-10.7 9.1-23.4 20.2z"/>
</svg>
